<svg width="22" height="22" viewBox="0 0 22 22" fill="none" xmlns="http://www.w3.org/2000/svg">
<path d="M0.277579 0.297221C0.647684 -0.0725583 1.24774 -0.0725583 1.61785 0.297221L21.7219 20.3836C22.092 20.7534 22.092 21.3529 21.7219 21.7227C21.3518 22.0924 20.7517 22.0924 20.3816 21.7227L0.277579 1.63631C-0.0925263 1.26653 -0.0925263 0.667001 0.277579 0.297221Z" fill="white"/>
<path d="M0.277589 21.7028C-0.092516 21.333 -0.0925161 20.7335 0.277589 20.3637L20.3816 0.277335C20.7517 -0.0924449 21.3518 -0.0924449 21.7219 0.277335C22.092 0.647114 22.092 1.24665 21.7219 1.61642L1.61786 21.7028C1.24775 22.0726 0.647694 22.0726 0.277589 21.7028Z" fill="white"/>
</svg>
